<?xml version="1.0" encoding="UTF-8" standalone="no"?>
<!-- Created with Inkscape (http://www.inkscape.org/) -->

<svg
   xmlns:dc="http://purl.org/dc/elements/1.1/"
   xmlns:cc="http://creativecommons.org/ns#"
   xmlns:rdf="http://www.w3.org/1999/02/22-rdf-syntax-ns#"
   xmlns:svg="http://www.w3.org/2000/svg"
   xmlns="http://www.w3.org/2000/svg"
   xmlns:sodipodi="http://sodipodi.sourceforge.net/DTD/sodipodi-0.dtd"
   xmlns:inkscape="http://www.inkscape.org/namespaces/inkscape"
   width="297mm"
   height="50mm"
   id="svg5471"
   version="1.1"
   inkscape:version="0.92.4 (5da689c313, 2019-01-14)"
   viewBox="0 0 1122.5197 188.97637"
   sodipodi:docname="logo_7thpyramid.svg"
   inkscape:export-filename="C:\Users\Jorge\Desktop\newlogo.png"
   inkscape:export-xdpi="90"
   inkscape:export-ydpi="90">
  <defs
     id="defs5473" />
  <sodipodi:namedview
     id="base"
     pagecolor="#ffffff"
     bordercolor="#000000"
     borderopacity="1"
     inkscape:pageopacity="0.0"
     inkscape:pageshadow="0"
     inkscape:zoom="0.90509668"
     inkscape:cx="519.68849"
     inkscape:cy="417.55794"
     inkscape:document-units="px"
     inkscape:current-layer="layer1"
     showgrid="false"
     inkscape:window-width="1920"
     inkscape:window-height="1017"
     inkscape:window-x="-8"
     inkscape:window-y="-8"
     inkscape:window-maximized="1"
     showguides="true"
     inkscape:guide-bbox="true"
     inkscape:pagecheckerboard="false"
     borderlayer="false"
     showborder="true"
     inkscape:showpageshadow="true"
     fit-margin-top="0"
     fit-margin-left="0"
     fit-margin-right="0"
     fit-margin-bottom="0"
     units="mm" />
  <metadata
     id="metadata5476">
    <rdf:RDF>
      <cc:Work
         rdf:about="">
        <dc:format>image/svg+xml</dc:format>
        <dc:type
           rdf:resource="http://purl.org/dc/dcmitype/StillImage" />
        <dc:title></dc:title>
      </cc:Work>
    </rdf:RDF>
  </metadata>
  <g
     inkscape:label="Layer 1"
     inkscape:groupmode="layer"
     id="layer1"
     transform="translate(3.9753283,-307.8658)">
    <g
       id="g841"
       transform="translate(0,302.36221)">
      <path
         sodipodi:nodetypes="ccccccccccccc"
         inkscape:connector-curvature="0"
         id="path3007-3-6-3-2-7"
         d="m 795.28255,46.930743 -18.91697,0.0039 -0.0166,106.054097 h 16.38294 l 0.0188,-77.652134 c 10.41809,18.050911 20.83621,36.101804 31.25422,54.152764 10.41311,-18.0425 20.82637,-36.084913 31.23959,-54.12735 l -0.0121,77.63253 h 16.38294 l 0.0257,-106.054107 c -4e-5,2.2e-5 -18.91694,-0.0039 -18.91694,-0.0039 l -28.71911,49.769803 z"
         style="fill:#000000;stroke-width:0.07758655" />
      <path
         sodipodi:nodetypes="cccc"
         inkscape:connector-curvature="0"
         id="path1525-3"
         d="m 148.39767,122.58414 -25.7223,-44.552314 51.4446,-2e-6 z"
         inkscape:transform-center-y="16.151811"
         inkscape:transform-center-x="6.7331101e-06"
         style="fill:#000000;stroke:none;stroke-width:5.84504366;stroke-miterlimit:4;stroke-dasharray:none;stroke-opacity:1" />
      <path
         inkscape:export-filename="C:\Users\jorma\Desktop\path3009.png"
         inkscape:export-ydpi="129.99477"
         inkscape:export-xdpi="129.99477"
         sodipodi:nodetypes="ccccccc"
         style="fill:#000000;stroke-width:0.06126936"
         inkscape:connector-curvature="0"
         id="path3007-3"
         d="m 226.81574,47.014289 -61.25176,106.024241 -8.62682,-14.93548 42.78371,-74.701655 -85.93179,-0.02145 -9.51252,-16.394192 z" />
      <path
         sodipodi:nodetypes="cccccccccccccccccccc"
         inkscape:connector-curvature="0"
         id="path3007-3-6"
         d="m 240.32808,47.022182 -9.68941,16.388457 25.93422,0.0052 -0.0166,89.622561 h 16.38294 l 0.0257,-89.619248 32.75427,0.0066 -0.014,89.612608 h 16.38292 l 0.01,-39.93038 37.85132,0.0127 V 96.754415 l -37.84746,-0.01989 0.0121,-49.748809 z m 119.63754,-0.03647 -0.0166,106.052728 h 16.38294 l 0.0257,-106.052728 z"
         style="fill:#000000;stroke-width:0.0687196" />
      <path
         sodipodi:nodetypes="ccccccccccccccc"
         inkscape:connector-curvature="0"
         id="path3007-3-6-3-2-1"
         d="m 424.67606,46.985715 -0.0166,106.052725 h 16.38292 l 0.01,-39.92209 21.92061,-0.008 c 18.1907,-0.0919 32.88984,-14.861956 32.89433,-33.052883 0,-18.259335 -14.80211,-33.06145 -33.06145,-33.06145 -0.0541,0.0025 -0.10812,0.0052 -0.16217,0.008 z m 16.38817,16.399785 21.90846,0.01271 c 9.1355,0.09167 16.49415,7.521294 16.49814,16.657248 -0.002,9.150795 -7.38271,16.588006 -16.53321,16.660562 l -21.88166,0.0058 z"
         style="fill:#000000;stroke-width:0.07758611" />
      <path
         style="fill:#000000;stroke-width:0.05161212"
         d="m 490.40061,46.962235 37.86652,65.606865 -0.0144,40.46934 h 16.38293 l 0.0221,-40.53619 37.84993,-65.527307 -18.9222,-0.0058 -27.14005,46.993503 -27.12073,-46.996542 z"
         id="path3007-3-6-3-2-3"
         inkscape:connector-curvature="0"
         sodipodi:nodetypes="cccccccccc" />
      <path
         sodipodi:nodetypes="ccccccccccccccccc"
         inkscape:connector-curvature="0"
         id="path3007-3-6-3-2-1-0"
         d="m 582.50773,46.974943 -0.0166,106.052727 h 16.38292 l 0.01,-39.92237 13.02097,0.01 23.03667,39.91961 18.91945,0.004 -23.84137,-41.32433 c 14.03209,-4.15276 23.66479,-17.036027 23.67921,-31.669705 0,-18.259335 -14.80211,-33.061452 -33.06145,-33.061452 z m 16.38819,16.399783 c 7.30083,-0.02541 21.90846,0.0127 21.90846,0.0127 9.13548,0.09167 16.49413,7.521299 16.49812,16.657247 -0.002,9.150789 -7.38269,16.587999 -16.5332,16.660561 l -21.88139,0.0058 z"
         style="fill:#000000;stroke-width:0.07758611" />
      <path
         sodipodi:nodetypes="cccccsccccccccccc"
         inkscape:connector-curvature="0"
         id="path3007-3-6-3-2-165-7"
         d="m 920.78981,46.935992 -0.0166,106.058528 36.46731,-0.0119 v 0.055 l 0.0257,9e-4 c 14.0634,-5e-5 27.5509,-5.58665 37.49524,-15.53098 9.94434,-9.94434 15.53094,-23.43183 15.53104,-37.49525 0,-14.06346 -5.5867,-27.550842 -15.53104,-37.495238 -9.9444,-9.944384 -23.43179,-15.531215 -37.49524,-15.531258 -12.2054,1.4e-4 -24.2827,-0.04973 -36.47644,-0.04973 z m 36.47644,16.429894 c 20.21837,9.9e-5 36.60851,16.390384 36.60847,36.60876 4e-5,20.218374 -16.3901,36.608664 -36.60847,36.608764 l -20.10622,-0.0111 0.018,-73.201778 z"
         style="fill:#000000;stroke-width:0.07758822" />
      <path
         sodipodi:nodetypes="ccccc"
         inkscape:connector-curvature="0"
         id="path3007-3-6-3-2-165-3"
         d="M 904.41594,46.935862 H 888.0239 l -0.0166,106.058578 h 16.38294 z"
         style="fill:#000000;stroke-width:0.07758822" />
      <path
         style="fill:#000000;stroke-width:0.09057368"
         d="m 715.0762,46.967207 -61.21533,106.071513 122.48896,-0.0141 v 0.0282 l 0.0246,-0.0141 -61.25677,-106.071513 z m 0.0415,32.771389 32.86227,56.895914 -65.73008,0.009 z"
         id="path3007-3-6-3-2-165-3-1"
         inkscape:connector-curvature="0"
         sodipodi:nodetypes="ccccccccccc" />
      <path
         sodipodi:nodetypes="cccc"
         inkscape:connector-curvature="0"
         id="path1525-3-1-0-0-4"
         d="m 703.78467,123.49988 11.33298,-19.62928 11.33296,19.62927 z"
         inkscape:transform-center-y="-31.137467"
         inkscape:transform-center-x="-13.868525"
         style="fill:#000000;stroke:none;stroke-width:2.57526398;stroke-miterlimit:4;stroke-dasharray:none;stroke-opacity:1" />
      <path
         id="path1525-3-1-0-0-4-9"
         d="m 812.67032,46.985839 5.66648,9.814645 5.66649,9.814631 5.66649,-9.814638 5.66648,-9.814637 -11.33297,8e-6 z"
         inkscape:transform-center-y="31.137453"
         inkscape:transform-center-x="-13.868525"
         style="fill:#000000;stroke:none;stroke-width:2.57526398;stroke-miterlimit:4;stroke-dasharray:none;stroke-opacity:1"
         inkscape:connector-curvature="0" />
      <path
         transform="matrix(0.09013949,-0.15612616,-0.15612616,-0.09013949,289.25844,720.96497)"
         inkscape:transform-center-x="-13.868525"
         inkscape:transform-center-y="31.137453"
         d="m 3891.9158,736.27963 -31.4318,-54.4414 -31.4317,-54.44139 62.8635,0 62.8635,-10e-6 -31.4318,54.4414 z"
         inkscape:randomized="0"
         inkscape:rounded="0"
         inkscape:flatsided="false"
         sodipodi:arg2="2.6179939"
         sodipodi:arg1="1.5707963"
         sodipodi:r2="36.294266"
         sodipodi:r1="72.588531"
         sodipodi:cy="663.6911"
         sodipodi:cx="3891.9158"
         sodipodi:sides="3"
         id="path1525-3-1-0-0-4-9-3"
         style="fill:#000000;stroke:none;stroke-width:14.2848835;stroke-miterlimit:4;stroke-dasharray:none;stroke-opacity:1"
         sodipodi:type="star" />
    </g>
  </g>
</svg>
